<svg width="16" height="16" viewBox="0 0 16 16" fill="none" xmlns="http://www.w3.org/2000/svg">
<path d="M14.3068 12.3684C14.4639 12.5335 14.5816 12.7349 14.6504 12.9565C14.7193 13.1781 14.7374 13.4136 14.7032 13.6438C14.6691 13.8741 14.5836 14.0927 14.4538 14.2819C14.324 14.4712 14.1535 14.6257 13.9561 14.7331C12.8279 15.3648 11.5134 15.5262 10.2763 15.185C6.99296 14.3191 2.27361 9.37505 1.44707 5.93538C1.12138 4.63938 1.27549 3.2623 1.87849 2.08036C1.98096 1.87354 2.12849 1.6949 2.30913 1.55891C2.48976 1.42292 2.69843 1.33342 2.91823 1.29763C3.13803 1.26185 3.36279 1.28079 3.5743 1.35294C3.78581 1.42508 3.97813 1.54839 4.13568 1.71288L5.53677 3.17999C5.73882 3.38953 5.87554 3.65828 5.92892 3.95084C5.9823 4.24339 5.94984 4.54602 5.83581 4.81886C5.71102 5.12498 5.53384 5.40461 5.313 5.64393C3.71099 7.32223 8.95314 12.814 10.5545 11.135C10.783 10.9028 11.0501 10.7165 11.3427 10.5852C11.6031 10.4655 11.892 10.4314 12.1713 10.4874C12.4506 10.5433 12.7072 10.6866 12.9071 10.8985L14.3068 12.3684Z" fill="white"/>
</svg>
