<svg width="17" height="17" viewBox="0 0 17 17" fill="none" xmlns="http://www.w3.org/2000/svg">
<g clip-path="url(#clip0_76_177)">
<path fill-rule="evenodd" clip-rule="evenodd" d="M14.6309 9.80682C15.1948 10.3574 15.79 10.8754 16.2958 11.4815C16.5192 11.7508 16.7307 12.0287 16.8925 12.3413C17.1218 12.7856 16.9142 13.2746 16.5157 13.3011L14.0391 13.3C13.4004 13.353 12.8908 13.0958 12.4624 12.6591C12.1195 12.3098 11.8019 11.9381 11.4722 11.5771C11.337 11.4295 11.1956 11.2907 11.0265 11.1809C10.6885 10.9614 10.395 11.0286 10.2018 11.3813C10.005 11.7399 9.96039 12.137 9.94106 12.5367C9.91453 13.1199 9.73825 13.2732 9.15245 13.2999C7.90052 13.359 6.71237 13.1696 5.60862 12.538C4.63552 11.9812 3.88092 11.1953 3.22412 10.3054C1.94532 8.57276 0.966017 6.66883 0.0858557 4.71156C-0.112262 4.27059 0.032626 4.03388 0.519178 4.0255C1.32712 4.0098 2.13495 4.01092 2.94384 4.02438C3.27221 4.02918 3.4896 4.21753 3.61639 4.52774C4.05351 5.60256 4.58838 6.62515 5.25975 7.57301C5.43854 7.82536 5.62085 8.07771 5.88047 8.25533C6.16767 8.452 6.38635 8.38682 6.52146 8.06688C6.6072 7.86401 6.64473 7.64551 6.66406 7.42823C6.72807 6.68073 6.7365 5.93451 6.62423 5.18963C6.55531 4.72474 6.29346 4.4238 5.82958 4.33583C5.59287 4.29098 5.62811 4.20289 5.74273 4.06778C5.9418 3.83475 6.12902 3.6897 6.50224 3.6897H9.30119C9.74183 3.77666 9.83969 3.97461 9.90001 4.41799L9.90241 7.52704C9.89761 7.69868 9.98815 8.20802 10.2973 8.32163C10.5447 8.40251 10.7078 8.20456 10.8563 8.04766C11.5264 7.33641 12.0047 6.49585 12.432 5.62546C12.6217 5.24274 12.7847 4.84528 12.9427 4.44815C13.0598 4.15346 13.2435 4.00846 13.5754 4.01488L16.2693 4.01729C16.3491 4.01729 16.43 4.01846 16.5073 4.0317C16.9612 4.10906 17.0856 4.30432 16.9454 4.74759C16.7245 5.44304 16.2947 6.02259 15.8745 6.60482C15.4252 7.22643 14.9448 7.82676 14.4993 8.45205C14.09 9.02306 14.1225 9.31088 14.6309 9.80682Z" fill="white"/>
</g>
<defs>
<clipPath id="clip0_76_177">
<rect width="17" height="17" fill="white"/>
</clipPath>
</defs>
</svg>
