<svg width="15" height="12" viewBox="0 0 15 12" fill="none" xmlns="http://www.w3.org/2000/svg">
<g clip-path="url(#clip0_76_173)">
<path d="M5.96539 3.17972L5.96539 7.81872L9.88581 5.49896L5.96539 3.17972ZM14.6854 9.27904C14.5084 9.95588 14.0083 10.4792 13.3726 10.6644L13.3591 10.6676C11.7622 10.8788 9.91531 10.9995 8.04088 10.9995C7.85033 10.9995 7.66029 10.9984 7.47074 10.9958L7.49975 10.9964C7.33871 10.9984 7.14917 11 6.95862 11C5.08419 11 3.23625 10.8793 1.42233 10.6457L1.63938 10.6686C0.990731 10.4798 0.490615 9.95691 0.317074 9.29361L0.314074 9.28008C0.114027 8.18289 7.13324e-07 6.92026 9.3891e-07 5.63006C9.46915e-07 5.58428 9.78266e-07 5.5385 0.000501103 5.49324L0.000501102 5.50052C0.000501108 5.46202 9.76296e-07 5.41624 9.843e-07 5.37046C1.20989e-06 4.08026 0.114528 2.81815 0.333079 1.59402L0.314075 1.72096C0.491116 1.04412 0.991233 0.520759 1.62688 0.335553L1.64038 0.332432C3.23726 0.121214 5.08419 0.00051778 6.95863 0.000518108C7.14867 0.000518141 7.33871 0.00155863 7.52876 0.00415934L7.49975 0.00363958C7.66079 0.00155869 7.85083 -2.44201e-06 8.04088 -2.40879e-06C9.91582 -2.08096e-06 11.7632 0.120694 13.5772 0.354284L13.3601 0.331393C14.0093 0.519721 14.5094 1.04308 14.6834 1.70639L14.6864 1.71992C14.886 2.81711 15 4.07974 15 5.36942C15 5.4152 15 5.46098 14.9995 5.50624L14.9995 5.49948C14.9995 5.53798 15 5.58376 15 5.62954C15 6.91974 14.8855 8.18185 14.6669 9.40598L14.6854 9.27904Z" fill="white"/>
</g>
<defs>
<clipPath id="clip0_76_173">
<rect width="15" height="12" fill="white" transform="matrix(1 1.74846e-07 1.74846e-07 -1 0 12)"/>
</clipPath>
</defs>
</svg>
